HIERARCHY
ROOT Hips
{
	OFFSET 0.00000 0.00000 0.00000
	CHANNELS 6 Xposition Yposition Zposition Zrotation Yrotation Xrotation 
	JOINT LHipJoint
	{
		OFFSET 0 0 0
		CHANNELS 3 Zrotation Yrotation Xrotation
		JOINT LeftUpLeg
		{
			OFFSET 1.48831 -1.59570 0.95625
			CHANNELS 3 Zrotation Yrotation Xrotation
			JOINT LeftLeg
			{
				OFFSET 2.20856 -6.06797 0.00000
				CHANNELS 3 Zrotation Yrotation Xrotation
				JOINT LeftFoot
				{
					OFFSET 2.62924 -7.22379 0.00000
					CHANNELS 3 Zrotation Yrotation Xrotation
					JOINT LeftToeBase
					{
						OFFSET 0.16802 -0.46163 2.41673
						CHANNELS 3 Zrotation Yrotation Xrotation
						End Site
						{
							OFFSET 0.00000 -0.00000 1.23760
						}
					}
				}
			}
		}
	}
	JOINT RHipJoint
	{
		OFFSET 0 0 0
		CHANNELS 3 Zrotation Yrotation Xrotation
		JOINT RightUpLeg
		{
			OFFSET -1.56796 -1.59570 0.95625
			CHANNELS 3 Zrotation Yrotation Xrotation
			JOINT RightLeg
			{
				OFFSET -2.29239 -6.29829 0.00000
				CHANNELS 3 Zrotation Yrotation Xrotation
				JOINT RightFoot
				{
					OFFSET -2.66963 -7.33475 0.00000
					CHANNELS 3 Zrotation Yrotation Xrotation
					JOINT RightToeBase
					{
						OFFSET -0.18185 -0.49964 2.34359
						CHANNELS 3 Zrotation Yrotation Xrotation
						End Site
						{
							OFFSET -0.00000 -0.00000 1.20477
						}
					}
				}
			}
		}
	}
	JOINT LowerBack
	{
		OFFSET 0 0 0
		CHANNELS 3 Zrotation Yrotation Xrotation
		JOINT Spine
		{
			OFFSET 0.03505 2.15832 -0.34324
			CHANNELS 3 Zrotation Yrotation Xrotation
			JOINT Spine1
			{
				OFFSET -0.01089 2.17963 0.04689
				CHANNELS 3 Zrotation Yrotation Xrotation
				JOINT Neck
				{
					OFFSET 0 0 0
					CHANNELS 3 Zrotation Yrotation Xrotation
					JOINT Neck1
					{
						OFFSET 0.04686 1.69404 0.22159
						CHANNELS 3 Zrotation Yrotation Xrotation
						JOINT Head
						{
							OFFSET 0.00265 1.69305 -0.01513
							CHANNELS 3 Zrotation Yrotation Xrotation
							End Site
							{
								OFFSET -0.00415 1.80215 -0.03034
							}
						}
					}
				}
				JOINT LeftShoulder
				{
					OFFSET 0 0 0
					CHANNELS 3 Zrotation Yrotation Xrotation
					JOINT LeftArm
					{
						OFFSET 3.67184 1.11724 -0.19002
						CHANNELS 3 Zrotation Yrotation Xrotation
						JOINT LeftForeArm
						{
							OFFSET 5.17714 -0.00000 -0.00000
							CHANNELS 3 Zrotation Yrotation Xrotation
							JOINT LeftHand
							{
								OFFSET 3.43679 -0.00000 -0.00000
								CHANNELS 3 Zrotation Yrotation Xrotation
								JOINT LeftFingerBase
								{
									OFFSET 0 0 0
									CHANNELS 3 Zrotation Yrotation Xrotation
									JOINT LeftHandIndex1
									{
										OFFSET 0.57312 -0.00000 -0.00000
										CHANNELS 3 Zrotation Yrotation Xrotation
										End Site
										{
											OFFSET 0.46206 -0.00000 -0.00000
										}
									}
								}
								JOINT LThumb
								{
									OFFSET 0 0 0
									CHANNELS 3 Zrotation Yrotation Xrotation
									End Site
									{
										OFFSET 0.46912 -0.00000 0.46912
									}
								}
							}
						}
					}
				}
				JOINT RightShoulder
				{
					OFFSET 0 0 0
					CHANNELS 3 Zrotation Yrotation Xrotation
					JOINT RightArm
					{
						OFFSET -3.59596 0.95831 -0.26050
						CHANNELS 3 Zrotation Yrotation Xrotation
						JOINT RightForeArm
						{
							OFFSET -5.23908 -0.00000 -0.00000
							CHANNELS 3 Zrotation Yrotation Xrotation
							JOINT RightHand
							{
								OFFSET -3.46485 -0.00000 -0.00000
								CHANNELS 3 Zrotation Yrotation Xrotation
								JOINT RightFingerBase
								{
									OFFSET 0 0 0
									CHANNELS 3 Zrotation Yrotation Xrotation
									JOINT RightHandIndex1
									{
										OFFSET -0.60875 -0.00000 -0.00000
										CHANNELS 3 Zrotation Yrotation Xrotation
										End Site
										{
											OFFSET -0.49079 -0.00000 -0.00000
										}
									}
								}
								JOINT RThumb
								{
									OFFSET 0 0 0
									CHANNELS 3 Zrotation Yrotation Xrotation
									End Site
									{
										OFFSET -0.49829 -0.00000 0.49829
									}
								}
							}
						}
					}
				}
			}
		}
	}
}
MOTION
Frames: 8
Frame Time: .0083333
49.6124 15.9193 16.2876 0 0 0 0 0 0 -21 0 0 0 0 0 0 0 0 0 0 0 0 0 0 21 0 0 0 0 0 0 0 0 0 0 0 0 0 0 0 0 0 0 0 0 0 0 -16 0 0 21 0 0 11 0 0 0 -8 0 0 0 0 0 0 0 0 0 0 0 0 0 0 0 0 0 0 0 0 8 0 0 0 0 0 0 0 0 0 0 0 0 0 0 0 0 0
49.6124 15.9193 16.2876 -171.6860 -60.0983 170.5210 0.0000 0.0000 0.0000 -13.9853 4.4543 -6.2312 2.2219 9.3137 26.7815 1.2093 -4.1805 -19.8227 0.0301 -1.1200 -3.0791 0.0000 0.0000 0.0000 27.6649 2.7126 -7.8163 -3.3612 -11.2580 33.1549 -1.9884 -5.9297 -29.2953 -0.0071 -0.5426 1.4910 4.5264 -1.5117 0.7971 2.1007 -2.2390 3.4622 -0.4124 -1.0756 3.0365 -0.0782 -2.2499 -0.7382 5.1530 -2.9014 -5.9797 1.6692 -1.6038 -1.6611 0.0000 -0.0000 0.0000 -90.0424 -2.7635 14.8492 15.4620 -24.7858 -3.4173 -0.0000 0.0000 -20.0647 16.9529 7.1541 2.1741 -7.1250 0.0000 -0.0000 -8.3627 37.3379 1.5903 0.0000 -0.0000 0.0000 88.9695 -1.1585 13.2272 -13.2323 21.6267 -2.5383 0.0000 0.0000 3.5332 -19.2873 -3.4448 1.2046 7.1250 -0.0000 -0.0000 5.9906 -33.5847 1.6846
49.6091 15.9192 16.2914 -171.7070 -59.9997 170.5620 0.0000 0.0000 0.0000 -14.0071 4.5168 -6.2345 2.2189 9.3079 26.7632 1.2132 -4.1079 -19.8658 0.0308 -1.1334 -3.1159 0.0000 0.0000 0.0000 27.6430 2.7509 -7.8313 -3.3648 -11.2634 33.1735 -1.9831 -5.9130 -29.2520 -0.0060 -0.5009 1.3763 4.4636 -1.5418 0.7979 2.1378 -2.2755 3.4030 -0.3390 -1.0974 2.9767 -0.0881 -2.1911 -0.6891 5.0570 -2.8252 -5.8903 1.6386 -1.5608 -1.6440 0.0000 -0.0000 0.0000 -90.0703 -2.7584 14.9227 15.5438 -24.8982 -3.4516 -0.0000 0.0000 -20.2241 16.8600 7.2964 2.2042 -7.1250 0.0000 -0.0000 -8.4622 37.4787 1.5801 0.0000 -0.0000 0.0000 88.8832 -1.2154 13.5064 -13.3196 21.7536 -2.5705 0.0000 0.0000 3.3661 -19.2364 -3.5537 1.2391 7.1250 -0.0000 -0.0000 6.0420 -33.6976 1.6826
49.6086 15.9193 16.2953 -171.7270 -59.8709 170.6350 0.0000 0.0000 0.0000 -14.0311 4.4956 -6.2484 2.2143 9.2989 26.7350 1.2182 -3.9837 -19.9255 0.0303 -1.1234 -3.0883 0.0000 0.0000 0.0000 27.6379 2.8429 -7.8788 -3.3681 -11.2684 33.1905 -1.9813 -5.8742 -29.2191 -0.0053 -0.4698 1.2910 4.3657 -1.5629 0.8201 2.2053 -2.2979 3.3182 -0.2135 -1.1143 2.8815 -0.1547 -2.1318 -0.6456 4.9746 -2.7484 -5.7750 1.6216 -1.5158 -1.6168 0.0000 0.0000 0.0000 -90.1726 -2.7168 14.8861 15.6389 -25.0286 -3.4918 -0.0000 0.0000 -20.1952 16.5246 8.1568 2.4104 -7.1250 0.0000 -0.0000 -8.8809 38.3420 1.4699 0.0000 0.0000 0.0000 88.7496 -1.2931 13.7742 -13.4036 21.8756 -2.6017 0.0000 0.0000 3.2353 -19.2661 -3.7283 1.3020 7.1250 -0.0000 -0.0000 6.0340 -33.8825 1.6532
49.6074 15.9206 16.2990 -171.8160 -59.7817 170.7400 0.0000 0.0000 0.0000 -14.0916 4.5208 -6.2528 2.2097 9.2899 26.7064 1.2224 -3.9129 -19.9712 0.0300 -1.1189 -3.0760 0.0000 0.0000 0.0000 27.5872 2.9014 -7.9047 -3.3716 -11.2736 33.2084 -1.9818 -5.8391 -29.2036 -0.0059 -0.4963 1.3638 4.2390 -1.5743 0.8697 2.2363 -2.3046 3.2489 -0.1086 -1.1230 2.7869 -0.0455 -2.1245 -0.6885 4.7689 -2.7475 -5.6179 1.5332 -1.5083 -1.5622 0.0000 -0.0000 0.0000 -90.2046 -2.7019 14.9903 15.6849 -25.0916 -3.5113 -0.0000 0.0000 -20.2489 16.7419 7.6785 2.3016 -7.1250 0.0000 -0.0000 -8.6204 37.8647 1.5279 0.0000 -0.0000 0.0000 88.6647 -1.3481 13.9780 -13.4963 22.0101 -2.6364 0.0000 0.0000 3.1574 -19.2134 -3.6544 1.2725 7.1250 -0.0000 -0.0000 6.0700 -33.8027 1.6749
49.6065 15.9212 16.3029 -171.8680 -59.6787 170.8190 0.0000 0.0000 0.0000 -14.1306 4.5404 -6.2618 2.2054 9.2814 26.6795 1.2261 -3.8313 -20.0143 0.0297 -1.1124 -3.0580 0.0000 0.0000 0.0000 27.5582 2.9665 -7.9361 -3.3748 -11.2784 33.2246 -1.9790 -5.8148 -29.1722 -0.0057 -0.4895 1.3449 4.1434 -1.5887 0.9045 2.2741 -2.3175 3.1821 -0.0146 -1.1339 2.7024 -0.0262 -2.0915 -0.6974 4.6503 -2.7081 -5.5038 1.4894 -1.4832 -1.5266 -0.0000 0.0000 0.0000 -90.2501 -2.6841 15.0516 15.7469 -25.1763 -3.5376 -0.0000 0.0000 -20.2830 16.7265 7.7324 2.3154 -7.1250 0.0000 -0.0000 -8.6418 37.9193 1.5201 -0.0000 0.0000 0.0000 88.5717 -1.3978 14.2114 -13.5893 22.1445 -2.6713 0.0000 0.0000 3.0457 -19.1870 -3.6732 1.2771 7.1250 -0.0000 -0.0000 6.0933 -33.8216 1.6786
49.6060 15.9219 16.3068 -171.9220 -59.5799 170.8990 0.0000 0.0000 0.0000 -14.1689 4.5647 -6.2733 2.2003 9.2715 26.6483 1.2287 -3.7571 -20.0472 0.0293 -1.1046 -3.0368 0.0000 0.0000 0.0000 27.5284 3.0303 -7.9707 -3.3782 -11.2834 33.2418 -1.9762 -5.7904 -29.1411 -0.0057 -0.4873 1.3390 4.0545 -1.6008 0.9416 2.3056 -2.3273 3.1197 0.0692 -1.1428 2.6210 -0.0106 -2.0608 -0.7134 4.5503 -2.6714 -5.4045 1.4525 -1.4602 -1.4941 -0.0000 0.0000 0.0000 -90.2879 -2.6676 15.1236 15.8032 -25.2531 -3.5616 -0.0000 0.0000 -20.3095 16.7191 7.7751 2.3270 -7.1250 0.0000 -0.0000 -8.6548 37.9626 1.5131 -0.0000 0.0000 0.0000 88.4869 -1.4353 14.4394 -13.6858 22.2838 -2.7078 0.0000 0.0000 2.9324 -19.1589 -3.6861 1.2796 7.1250 -0.0000 -0.0000 6.1175 -33.8342 1.6835
49.6058 15.9227 16.3108 -171.9760 -59.4856 170.9790 0.0000 0.0000 0.0000 -14.2062 4.5950 -6.2914 2.1961 9.2631 26.6217 1.2307 -3.6940 -20.0738 0.0290 -1.0992 -3.0218 0.0000 0.0000 0.0000 27.4964 3.0882 -8.0076 -3.3814 -11.2883 33.2584 -1.9726 -5.7676 -29.1055 -0.0057 -0.4881 1.3413 3.9769 -1.6107 0.9759 2.3286 -2.3347 3.0649 0.1379 -1.1498 2.5485 -0.0024 -2.0302 -0.7315 4.4777 -2.6338 -5.3282 1.4261 -1.4379 -1.4684 0.0000 -0.0000 0.0000 -90.3143 -2.6588 15.2102 15.8520 -25.3195 -3.5824 -0.0000 0.0000 -20.3373 16.7284 7.7953 2.3344 -7.1250 0.0000 -0.0000 -8.6502 37.9841 1.5077 0.0000 -0.0000 0.0000 88.4132 -1.4576 14.6652 -13.7872 22.4296 -2.7464 0.0000 0.0000 2.8103 -19.1277 -3.6905 1.2788 7.1250 -0.0000 -0.0000 6.1433 -33.8377 1.6901
